<svg width="20" height="16" viewBox="0 0 20 16" fill="none" xmlns="http://www.w3.org/2000/svg">
<path d="M12.514 4.46835C12.2204 4.17619 11.7455 4.17737 11.4533 4.47099C11.1612 4.76462 11.1624 5.23949 11.456 5.53165L12.514 4.46835ZM14.471 8.53165C14.7646 8.82381 15.2395 8.82263 15.5317 8.52901C15.8238 8.23538 15.8226 7.76051 15.529 7.46835L14.471 8.53165ZM15.529 8.53165C15.8226 8.23949 15.8238 7.76462 15.5317 7.47099C15.2395 7.17737 14.7646 7.17619 14.471 7.46835L15.529 8.53165ZM11.456 10.4683C11.1624 10.7605 11.1612 11.2354 11.4533 11.529C11.7455 11.8226 12.2204 11.8238 12.514 11.5317L11.456 10.4683ZM15 8.75C15.4142 8.75 15.75 8.41421 15.75 8C15.75 7.58579 15.4142 7.25 15 7.25V8.75ZM1 7.25C0.585786 7.25 0.25 7.58579 0.25 8C0.25 8.41421 0.585786 8.75 1 8.75V7.25ZM11.456 5.53165L14.471 8.53165L15.529 7.46835L12.514 4.46835L11.456 5.53165ZM14.471 7.46835L11.456 10.4683L12.514 11.5317L15.529 8.53165L14.471 7.46835ZM15 7.25H1V8.75H15V7.25Z" fill="black"/>
<path d="M7 11C7 13.2091 8.79086 15 11 15H15C17.2091 15 19 13.2091 19 11V5C19 2.79086 17.2091 1 15 1H11C8.79086 1 7 2.79086 7 5" stroke="black" stroke-width="1.5" stroke-linecap="round" stroke-linejoin="round"/>
<path d="M12.514 4.46835C12.2204 4.17619 11.7455 4.17737 11.4533 4.47099C11.1612 4.76462 11.1624 5.23949 11.456 5.53165L12.514 4.46835ZM14.471 8.53165C14.7646 8.82381 15.2395 8.82263 15.5317 8.52901C15.8238 8.23538 15.8226 7.76051 15.529 7.46835L14.471 8.53165ZM15.529 8.53165C15.8226 8.23949 15.8238 7.76462 15.5317 7.47099C15.2395 7.17737 14.7646 7.17619 14.471 7.46835L15.529 8.53165ZM11.456 10.4683C11.1624 10.7605 11.1612 11.2354 11.4533 11.529C11.7455 11.8226 12.2204 11.8238 12.514 11.5317L11.456 10.4683ZM15 8.75C15.4142 8.75 15.75 8.41421 15.75 8C15.75 7.58579 15.4142 7.25 15 7.25V8.75ZM1 7.25C0.585786 7.25 0.25 7.58579 0.25 8C0.25 8.41421 0.585786 8.75 1 8.75V7.25ZM11.456 5.53165L14.471 8.53165L15.529 7.46835L12.514 4.46835L11.456 5.53165ZM14.471 7.46835L11.456 10.4683L12.514 11.5317L15.529 8.53165L14.471 7.46835ZM15 7.25H1V8.75H15V7.25Z" fill="black"/>
<path d="M7 11C7 13.2091 8.79086 15 11 15H15C17.2091 15 19 13.2091 19 11V5C19 2.79086 17.2091 1 15 1H11C8.79086 1 7 2.79086 7 5" stroke="black" stroke-width="1.5" stroke-linecap="round" stroke-linejoin="round"/>
</svg>
