<svg xmlns="http://www.w3.org/2000/svg" viewBox="0 0 500 500"><g id="freepik--Character--inject-6"><path d="M148,147.15c-2.56,4.23-5.24,8.66-7.67,13-1.22,2.18-2.38,4.36-3.43,6.51-.52,1.08-1,2.15-1.42,3.18a23.56,23.56,0,0,0-1,2.85,5.18,5.18,0,0,0-.13.54,4.16,4.16,0,0,0-.08.43,8,8,0,0,0,0,1.12,12.93,12.93,0,0,0,.42,2.83,37.51,37.51,0,0,0,2.28,6.44,123.78,123.78,0,0,0,7,13.15l.07.12a3.25,3.25,0,0,1-5,4.08,68.8,68.8,0,0,1-10.77-12.59,42.08,42.08,0,0,1-4.09-7.85,25.14,25.14,0,0,1-1.33-4.79,19.08,19.08,0,0,1-.24-2.8c0-.47,0-1,.06-1.51s.11-.93.17-1.4a41.58,41.58,0,0,1,2.62-8.78c1-2.63,2.21-5.13,3.44-7.56a132.27,132.27,0,0,1,8.16-14.05,6.5,6.5,0,0,1,11,7Z" style="fill:#263238"></path><path d="M145.31,198.75l1.27,4-9.3.83a9.49,9.49,0,0,1,.58-5.14,3.5,3.5,0,0,1,2.86-2l.82-.09A3.56,3.56,0,0,1,145.31,198.75Z" style="fill:#7f3e3b"></path><polygon points="147.35 208.15 140.23 209.59 137.28 203.55 146.58 202.72 147.35 208.15" style="fill:#7f3e3b"></polygon><path d="M170.88,112.21c0,.63.25,1.18.66,1.24s.78-.42.83-1-.25-1.19-.66-1.24S170.92,111.58,170.88,112.21Z" style="fill:#263238"></path><path d="M171.07,113.38a24.26,24.26,0,0,0,2.61,5.79c-1.19.89-3.06.16-3.06.16Z" style="fill:#630f0f"></path><path d="M168.83,108.4a.38.38,0,0,1-.1-.68,3.72,3.72,0,0,1,3.38-.13.39.39,0,0,1,.18.51.37.37,0,0,1-.5.15h0a2.9,2.9,0,0,0-2.67.13A.33.33,0,0,1,168.83,108.4Z" style="fill:#263238"></path><path d="M150.88,116.42c1.33,5.78,2.82,16.36-1,20.11,0,0,1.77,5.87,12.43,6.11,11.72.27,5.4-5.71,5.4-5.71-6.46-1.68-6.46-6.44-5.5-10.89Z" style="fill:#7f3e3b"></path><path d="M146.13,138.46c-1.22-.8.4-7.9,1.58-8.6,3.14-1.86,16.75-1.13,22.73,2.58,1.9,2.14,1.59,6.64,1.59,6.64Z" style="fill:#263238"></path><path d="M145.1,408.94c.8,0,1.58-.08,1.87-.46a.77.77,0,0,0,0-.89.92.92,0,0,0-.6-.45c-1.15-.3-3.28,1.12-3.37,1.18a.16.16,0,0,0-.07.18.19.19,0,0,0,.14.15A10.51,10.51,0,0,0,145.1,408.94Zm.94-1.47a.85.85,0,0,1,.23,0,.55.55,0,0,1,.35.26c.18.31.08.44,0,.48-.33.43-1.93.39-3.11.16A5.76,5.76,0,0,1,146,407.47Z" style="fill:#FF8401"></path><path d="M143.08,408.66l.09,0c.8-.42,2.33-2.09,2.14-3a.65.65,0,0,0-.61-.5.93.93,0,0,0-.78.21c-.9.72-1,3-1,3.07a.19.19,0,0,0,.09.17A.14.14,0,0,0,143.08,408.66Zm1.5-3.14h.09c.24,0,.26.15.27.2.12.52-.85,1.79-1.64,2.38a4.25,4.25,0,0,1,.86-2.44A.68.68,0,0,1,144.58,405.52Z" style="fill:#FF8401"></path><path d="M206.82,402.52c1-.22,1.87-.57,2.05-1.09a.72.72,0,0,0-.24-.79,1,1,0,0,0-.68-.29c-1.36-.06-3.56,2.08-3.65,2.17a.18.18,0,0,0,0,.2.21.21,0,0,0,.19.12A12.87,12.87,0,0,0,206.82,402.52Zm.77-1.76a1.17,1.17,0,0,1,.36,0,.58.58,0,0,1,.42.17c.19.2.18.32.15.4-.21.57-2.11,1-3.57,1.15A7.69,7.69,0,0,1,207.59,400.76Z" style="fill:#FF8401"></path><path d="M204.48,402.84l.07,0c.79-.62,2.13-2.7,1.74-3.54-.09-.19-.3-.41-.81-.35a1.28,1.28,0,0,0-.9.54c-.73,1-.35,3.14-.33,3.23a.22.22,0,0,0,.12.15Zm1-3.54.11,0c.33,0,.39.08.41.12.23.51-.63,2.09-1.4,2.88a4.33,4.33,0,0,1,.33-2.6A.89.89,0,0,1,205.44,399.3Z" style="fill:#FF8401"></path><polygon points="196.13 405.85 203.37 404.38 200.34 385.27 193.09 386.74 196.13 405.85" style="fill:#7f3e3b"></polygon><polygon points="134.06 408.33 142.03 409.14 143.76 391.39 135.79 390.57 134.06 408.33" style="fill:#7f3e3b"></polygon><path d="M142.47,407.54l-8.84-.27a.64.64,0,0,0-.65.52l-1.36,6.93a1.22,1.22,0,0,0,1.19,1.43c3.08,0,4.57-.09,8.46,0,2.39.07,9.93.66,13.21.43s3.29-3.5,1.91-3.71c-6.18-.9-10.65-3-12.63-4.83A2,2,0,0,0,142.47,407.54Z" style="fill:#263238"></path><path d="M203.38,402l-8.23,1.9a.64.64,0,0,0-.5.67l.45,7.17a1.22,1.22,0,0,0,1.47,1.12c3-.74,7.2-1.91,10.93-2.77,4.37-1,6.28-1.19,11.39-2.37,3.1-.72,3.05-4.1,1.68-4.09-6.27.05-9.2.57-15.2-1.45A3.69,3.69,0,0,0,203.38,402Z" style="fill:#263238"></path><polygon points="200.33 385.28 201.9 395.13 194.66 396.6 193.09 386.75 200.33 385.28" style="opacity:0.2"></polygon><polygon points="135.79 390.57 143.76 391.39 142.86 400.54 134.9 399.73 135.79 390.57" style="opacity:0.2"></polygon><path d="M149.92,108.08c-.1,7.79-.55,12.32,3.07,16.81a10.12,10.12,0,0,0,17.7-3c2.18-6.72,2-18.34-5.38-22.42S150,100.28,149.92,108.08Z" style="fill:#7f3e3b"></path><path d="M165.43,114.5c-1.89,3.56-7.65,7.61-10.78,7.89a6.21,6.21,0,0,1-6.72-6.22c-.06-4.17-3-9.11-2.23-12s1.89-4.34,3.56-3.73a12.14,12.14,0,0,1,10.33-4.16A23.42,23.42,0,0,1,168,98.11c2.21,1,5,5.7,3.62,7.68C169.91,108.22,165.37,106.71,165.43,114.5Z" style="fill:#263238"></path><path d="M145.58,110.83c-.33.88-1.06,4.28,2.32,4.79s12.43-.45,16.22-2.66,6.29-7.83,7.17-10.38-.51-5.25-2.73-5.37c-1.69.21-7.23-2.08-9.48-3.71S152,95.43,149,93.79c-8.34-4.54-14.55,5.42-9.05,6.29s5.8,1,5.38,2.42S142.92,109,145.58,110.83Z" style="fill:#FF8401"></path><path d="M146.33,110.83c1.58.13,9.25.09,15.25-3.29A12.19,12.19,0,0,0,167.81,98s-.81,5.22-7.15,8.93S146.33,110.83,146.33,110.83Z" style="opacity:0.2"></path><path d="M161.94,111.52a9.26,9.26,0,0,0,1.43,5.56c1.42,2.2,3.36,1.41,4-.79.57-2,.52-5.5-1.4-6.94S162.14,109.2,161.94,111.52Z" style="fill:#7f3e3b"></path><path d="M167.8,205.42s-1.39,60.07-2.87,83c-1.63,25.06-18.3,109.55-18.3,109.55l-14.4-1.15s10.44-69.25,9.75-104c-.53-26.71-1.25-88-1.25-88Z" style="fill:#FF8401"></path><path d="M149.05,392.84c.06,0-1.61,5.38-1.61,5.38l-16.21-1.3.41-4.89Z" style="fill:#263238"></path><path d="M162.24,231.26c1.89-4.07,3.76-4.93,5-4.95-.46,16.48-1.16,39.16-1.92,54.36C161.62,262,158.35,239.63,162.24,231.26Z" style="opacity:0.30000000000000004"></path><path d="M182.68,205.75s10.29,56,13,79.94c2.83,24.95,8.21,106,8.21,106l-12.77,3s-14.62-80.51-18.85-104.88c-4.61-26.56-19.78-84.71-19.78-84.71Z" style="fill:#FF8401"></path><path d="M204.9,386c.06,0,.81,5.57.81,5.57l-15.54,3.59-1.79-4.73Z" style="fill:#263238"></path><polygon points="228.61 166.19 256.94 414.69 255.44 414.87 224.62 166.66 228.61 166.19" style="fill:#263238"></polygon><path d="M219.7,176l8.85-1.56.15,8.88s-6.71,2.25-9.84-2.73Z" style="fill:#7f3e3b"></path><polygon points="232.81 176 232.78 182.48 228.7 183.27 228.55 174.39 232.81 176" style="fill:#7f3e3b"></polygon><path d="M184.12,142.57c.66,6.57,3.27,23.73.81,60.89a3.23,3.23,0,0,1-3.29,3l-39.25-.87a3.05,3.05,0,0,1-3-3c0-9.16,1.09-32.19-3.21-55.9A10,10,0,0,1,145.55,135c1.36-.07,2.8-.1,4.28-.09,5.35,0,13.06.07,17.79.58a77.19,77.19,0,0,1,12.31,2.28A5.56,5.56,0,0,1,184.12,142.57Z" style="fill:#263238"></path><path d="M146.29,142.39c-2.46-2.09-1.93-5.45-1-7.45.18-.36-.4-.68-.91-.51a29,29,0,0,0-4.82,2,1.93,1.93,0,0,0-1,1.18c-.93,3.59-.21,6.51.81,7.2C142.24,143.86,146.29,142.39,146.29,142.39Z" style="fill:#FF8401"></path><path d="M171.52,145.07c.13-3.31,4.12-6.06,7.06-7.33.51-.22.37-.85-.24-1a36.3,36.3,0,0,0-6.16-.94,3.87,3.87,0,0,0-2.08.5c-4.56,2.74-7,5.8-6.91,7C166.57,144.08,171.52,145.07,171.52,145.07Z" style="fill:#FF8401"></path><path d="M186.42,190.18a34.16,34.16,0,0,1,.34,4.72c0,.62-.31,1.1-.71,1-1.83-.24-6.72-1.17-9.14-4.26l-1.48-14.17c1.24,2.5,4.89,8.71,10.47,11.8A1.21,1.21,0,0,1,186.42,190.18Z" style="fill:#FF8401"></path><path d="M185.62,160,179,158.17c-.84,10.81,3.5,17.54,7,21.3C186,171.66,185.89,165.24,185.62,160Z" style="opacity:0.2"></path><path d="M184.4,142.43c.35,1,.83,2.22,1.26,3.35l1.39,3.43c1,2.27,1.95,4.54,3,6.73a68.77,68.77,0,0,0,7.29,12.18c.69.89,1.41,1.71,2.14,2.5a10,10,0,0,0,1.8,1.53,17.32,17.32,0,0,0,5.5,2.18,53.88,53.88,0,0,0,14.15.9h.26a3.24,3.24,0,0,1,1.33,6.25,38.51,38.51,0,0,1-4.09,1.37c-1.37.37-2.75.7-4.15.94a38,38,0,0,1-8.79.59,25.35,25.35,0,0,1-9.47-2.24,19.23,19.23,0,0,1-4.59-3,44.73,44.73,0,0,1-3.25-3.2,69,69,0,0,1-9.68-14.14c-1.29-2.47-2.5-5-3.57-7.51-.54-1.27-1.06-2.55-1.54-3.85s-.93-2.55-1.4-4a6.5,6.5,0,0,1,12.33-4.14Z" style="fill:#263238"></path><path d="M131.08,141c2.94-3.46,32.55-4.12,39.54-2.37s5.67,22.51,6.49,35.75,2.78,45.2-2.27,48.11-41.39,7-45.58-.81-3-34.33.91-38.94C129.51,173.83,125.69,147.39,131.08,141Z" style="fill:#FF8401"></path><path d="M131.08,141c2.94-3.46,32.55-4.12,39.54-2.37s5.67,22.51,6.49,35.75,2.78,45.2-2.27,48.11-41.39,7-45.58-.81-3-34.33.91-38.94C129.51,173.83,125.69,147.39,131.08,141Z" style="fill:#fff;opacity:0.4"></path><path d="M177.11,174.42c-.73-12,.27-30-4.67-34.73a2,2,0,0,1-.53-.1c-2.39-.89-4.26-.11-4.86,4.57s.61,11.53.66,13.58-.62,8.64-.42,10.64,2.56,26.17-.4,35.17-3.8,21.5,8,19C179.89,219.62,177.93,187.65,177.11,174.42Z" style="fill:#FF8401;opacity:0.2"></path><path d="M144.51,166.89c-7.11,0-13.42-.52-14.5-1.66a.5.5,0,0,1,.72-.69c1.87,2,31.08,2,35.36-.91,1.64-1.12,1.19-5.71.75-10.15-.58-6-1.19-12.2,2.28-14.1a.5.5,0,1,1,.48.88c-2.89,1.58-2.29,7.72-1.76,13.12.5,5.16.94,9.62-1.19,11.07S153.76,166.89,144.51,166.89Z" style="fill:#FF8401;opacity:0.8"></path><path d="M157,161.18c-1.22,1.76-1.79,7.83-1.43,10.37a.68.68,0,0,0,.71.56c.94-.05,2-.16,2.69-.23a.67.67,0,0,0,.6-.68c0-1.84-.07-7.35.41-9.53a.66.66,0,0,0-.58-.81,8.88,8.88,0,0,0-2,.07A.66.66,0,0,0,157,161.18Z" style="fill:#fff"></path><path d="M139,185.33c-6.35.2-9,2-9.34,3.25s-2,16.25-.83,22.34,29.09,4.66,32.21,2.25,1.13-7.59,2.88-12.25,4.24-13.42.74-14.67S152.37,184.92,139,185.33Z" style="fill:#FF8401;opacity:0.2"></path><path d="M135.31,162.16c-1.22,1.76-1.8,7.83-1.43,10.36a.67.67,0,0,0,.71.57c.94-.06,2-.16,2.69-.23a.67.67,0,0,0,.6-.68c0-1.85-.07-7.35.41-9.53a.67.67,0,0,0-.58-.81,8.84,8.84,0,0,0-2,.07A.62.62,0,0,0,135.31,162.16Z" style="fill:#fff"></path></g></svg>