<svg xmlns="http://www.w3.org/2000/svg" viewBox="0 0 500 500"><g id="freepik--Character--inject-43"><g id="freepik--group--inject-43"><path d="M141.27,154s-21.4-12-25.83-15.08-28.13-26.35-29.45-27c0,0,.88-2.66-1.11-4.21s-9.75-6.64-10.85-6.64-4,10.85-3.55,13.51,11.3,3.32,11.3,3.32,22.59,26.3,26.13,30,27.68,19.41,27.68,19.41Z" style="fill:#e4897b"></path><path d="M150.05,156.21s4.69,9.47-6.7,24.51l-25.11-18.46,10-18.15Z" style="fill:#407BFF"></path><path d="M143.35,180.72,131.49,172l-1.55-1.14L123.25,166l-5-3.69,3.69-6.67L124,151.8l4.25-7.69,4.1,2.28,3.54,2,14.14,7.86a11.25,11.25,0,0,1,.85,3.45C151.35,163.69,150.67,171.05,143.35,180.72Z" style="fill:#fff;opacity:0.6000000000000001;isolation:isolate"></path><path d="M143.35,180.72,131.49,172c4.07-8.42,14.6-11.39,19.41-12.34C151.35,163.69,150.67,171.05,143.35,180.72Z" style="opacity:0.2;isolation:isolate"></path><g style="opacity:0.2"><polygon points="135.91 148.35 132.37 150.41 132.37 146.39 135.91 148.35" style="fill:#fff"></polygon><polygon points="128.21 153.04 123.77 159.27 121.93 155.59 124.02 151.8 128.21 153.04" style="fill:#fff"></polygon><polygon points="131.49 162.41 129.94 170.86 123.25 165.95 131.49 162.41" style="fill:#fff"></polygon><polygon points="134.56 157.59 137.03 163.92 142.16 156.94 134.56 157.59" style="fill:#fff"></polygon></g><path d="M196.72,151.73s21.4-12,25.83-15.08,28.13-26.35,29.46-27c0,0-.89-2.66,1.1-4.21s9.75-6.64,10.85-6.64,4,10.85,3.55,13.51-11.3,3.32-11.3,3.32-22.59,26.31-26.13,30S202.4,165,202.4,165Z" style="fill:#e4897b"></path><path d="M171.15,278.45S170.69,286,170,296.1c-.46,6.28-1,13.53-1.65,20.54-.84,9.42-1.79,18.4-2.74,24-.87,5.13-12.42,68.84-12.42,68.84h-7.74c2.44-59.41,6.22-82.45,6.36-85.91,0-1.13.09-2.7.14-4.57.15-6.78.28-17.49.36-25.28.06-5.62.09-9.71.09-9.71Z" style="fill:#e4897b"></path><path d="M201,326.52c-.27,5.19-3.36,82.68-3.36,82.68h-8.51c-4.35-61.72-2.7-83.15-3.48-87.43,0,0,0,0,0,0-1.33-7.28-2.58-16.85-3.44-24-.69-5.71-1.12-9.82-1.12-9.82l17.35-7.5s1.05,9,1.84,19.78c.39,5.4.73,11.27.83,16.73C201.19,320.38,201.17,323.64,201,326.52Z" style="fill:#e4897b"></path><path d="M152.27,293.7,170,296.1c-.46,6.28-1,13.53-1.65,20.54L151.91,319C152.06,312.2,152.19,301.49,152.27,293.7Z" style="opacity:0.2;isolation:isolate"></path><path d="M201.12,317l-15.46,4.76c-1.33-7.28-2.58-16.85-3.44-24l18.07,2.46C200.68,305.63,201,311.5,201.12,317Z" style="opacity:0.2;isolation:isolate"></path><path d="M155,407.08H144.77a.75.75,0,0,0-.72.58l-1.65,7.48a1.24,1.24,0,0,0,.95,1.47,1.33,1.33,0,0,0,.28,0c3.3-.05,5.71-.26,9.85-.26,2.56,0,10.27.27,13.79.27s4-3.48,2.55-3.81c-6.48-1.41-11.36-3.36-13.43-5.22A2,2,0,0,0,155,407.08Z" style="fill:#407BFF"></path><path d="M198.28,406.82H188.07a.73.73,0,0,0-.72.57l-1.66,7.49a1.25,1.25,0,0,0,1,1.47l.27,0c3.31-.05,5.71-.25,9.86-.25,2.55,0,10.26.26,13.79.26s4-3.48,2.54-3.8c-6.48-1.41-11.35-3.37-13.42-5.23A2,2,0,0,0,198.28,406.82Z" style="fill:#407BFF"></path><path d="M171.85,312.27c.08-.68.16-1.39.24-2.19,1-10.24,2.09-22.53,3-34.37,3.45,9.28,4.94,22.33,6.74,36.56h21c-1.74-36.83-6.3-66.79-8.72-79.57H149.57c-.06,4.58-.57,49-1.72,79.57Z" style="fill:#263238"></path><path d="M171.85,312.27c.08-.68.16-1.39.24-2.19,1-10.24,2.09-22.53,3-34.37,3.45,9.28,4.94,22.33,6.74,36.56h21c-1.74-36.83-6.3-66.79-8.72-79.57H149.57c-.06,4.58-.57,49-1.72,79.57Z" style="fill:#fff;opacity:0.2;isolation:isolate"></path><path d="M178,141.49a11,11,0,0,1-.36,1.19,11.72,11.72,0,0,1-4.16,5.54,11.3,11.3,0,0,1-1.52.94,10.54,10.54,0,0,1-12.58-2c-4.21-4.25-4.1-9.16-4.58-17.47a11.52,11.52,0,0,1,.85-5.23,11.38,11.38,0,0,1,14.88-6.14C178.65,121.64,179.77,134,178,141.49Z" style="fill:#e4897b"></path><path d="M173.45,148.22a11.3,11.3,0,0,1-1.52.94,10.57,10.57,0,0,1-9.11.4,12.7,12.7,0,0,1,1.49-2.82A16.45,16.45,0,0,1,173.45,148.22Z" style="opacity:0.2;isolation:isolate"></path><path d="M156.72,159c4.1,3.72,14.13,2.35,14.13,2.35s6.26-1.72,4.94-3.67c-3.68-.61-5.47-2.33-6.21-4.54a10.8,10.8,0,0,1-.37-4.21,21,21,0,0,1,.31-2.35l-12.4-9.18C158.74,143.46,160.73,154.61,156.72,159Z" style="fill:#e4897b"></path><path d="M173.45,133.93l1.79.67-.89-3.66s2.62-4,0-7.47c0,0,7.24-2.2,3.15-6-1.52-1.42-3.41,0-8.41-2.17-2.71-1.19-11.19-1.28-11.61,2.17,0,0-6.11,0-6.77,10.4a20.82,20.82,0,0,0,6.47,16.44s7.38,1.74,11-1.22S173.45,133.93,173.45,133.93Z" style="fill:#263238"></path><path d="M168.73,134.52a5.35,5.35,0,0,0,2.76,3.69c1.69.72,2.81-1.66,2.56-4.16-.23-2.22-1.38-5.34-3.19-4.92S168.14,132.28,168.73,134.52Z" style="fill:#e4897b"></path><path d="M175.13,275.66c-.95,11.84-2,24.16-3,34.4-1.52-14.79-3.38-25.33-3.38-25.33s-1.74-1.43-6.53-9.07,0-21.92,0-21.92C162,267,175.13,275.66,175.13,275.66Z" style="opacity:0.2;isolation:isolate"></path><polygon points="204.38 310.54 203.46 314.01 181.1 314.01 181.1 310.8 204.38 310.54" style="fill:#407BFF"></polygon><polygon points="172.93 311.02 172.26 314.23 146.94 314.23 145.41 311.02 172.93 311.02" style="fill:#407BFF"></polygon><path d="M176.05,156.59s-3.64-5.75-12.81-6.16-9.87,5.9-9.87,5.9Z" style="fill:#407BFF"></path><path d="M176.05,156.59s-3.64-5.75-12.81-6.16-9.87,5.9-9.87,5.9Z" style="fill:#fff;opacity:0.5;isolation:isolate"></path><path d="M143.12,153a471.73,471.73,0,0,1-1,93.53l53.73-3.28c-.6-54.83-7.95-89.37-7.95-89.37s-13.85,2.91-25.12,2.49A81.05,81.05,0,0,1,143.12,153Z" style="fill:#407BFF"></path><path d="M187.94,153.92s7.18,16.78,7.95,33.76S166.73,228,166.73,228s-23.07-15.88-40.87-14.44-23.34,7.77-23.34,7.77,13.84-29.61,37.94-39.93c0,0-5-17.05,2.66-28.32C143.12,153,159.78,158.46,187.94,153.92Z" style="fill:#407BFF"></path><path d="M195.89,187.68a13.87,13.87,0,0,1,0,1.44,16.87,16.87,0,0,1-.27,2.21,23.93,23.93,0,0,1-1.53,5h0a55.08,55.08,0,0,1-8.28,13c-1.7,2.08-3.5,4.08-5.28,5.94A140.57,140.57,0,0,1,166.73,228a109.92,109.92,0,0,0-19.23-10.15c-2.05-.82-4.18-1.59-6.35-2.24h0a42.36,42.36,0,0,0-15.28-2,58.45,58.45,0,0,0-14.51,2.84c-.81.28-1.56.58-2.25.87l-.62.27a24.52,24.52,0,0,0-4.28,2.39c-.15.1-.29.21-.42.31s-.47.36-.65.52l-.24.21a1.33,1.33,0,0,0-.17.16l-.12.12-.07.07c0-.05.12-.26.3-.62l.28-.55c.28-.56.67-1.31,1.18-2.22l.22-.4.39-.69c.13-.24.27-.49.42-.74.58-1,1.26-2.16,2-3.39a101.48,101.48,0,0,1,14.5-18.34h0a70.35,70.35,0,0,1,6.24-5.51,55.75,55.75,0,0,1,12.36-7.45A48.25,48.25,0,0,1,138.88,168a34.93,34.93,0,0,1,.35-4.27A25.19,25.19,0,0,1,143.12,153a51.85,51.85,0,0,0,7.5,1.59,97.26,97.26,0,0,0,10,1,126.49,126.49,0,0,0,20.18-.71q3.42-.37,7.11-1l.23.56a118,118,0,0,1,4.11,12.21c.44,1.59.88,3.29,1.3,5.07s.74,3.37,1.06,5.14h0A83.65,83.65,0,0,1,195.89,187.68Z" style="fill:#fff;opacity:0.6000000000000001;isolation:isolate"></path><g style="opacity:0.2;isolation:isolate"><path d="M189,201.31l-3.16,8.08c-1.7,2.08-3.5,4.08-5.28,5.94l-6.43-12Z" style="fill:#fff"></path><path d="M134.56,193.59l-12.7.73a70.35,70.35,0,0,1,6.24-5.51Z" style="fill:#fff"></path><path d="M149.21,161.6l-1.36,13.2-9-6.81a34.93,34.93,0,0,1,.35-4.27Z" style="fill:#fff"></path><polygon points="153.37 196.38 149.21 183.7 161.86 181.36 153.37 196.38" style="fill:#fff"></polygon><polygon points="175.13 184.3 175.13 193.79 184.21 190.53 175.13 184.3" style="fill:#fff"></polygon><path d="M151.77,211.79l-4.27,6c-2.05-.82-4.18-1.59-6.35-2.24h0l-3.22-7.34Z" style="fill:#fff"></path><polygon points="119.33 202.69 125.86 205.46 119.33 209.91 119.33 202.69" style="fill:#fff"></polygon><path d="M111.35,216.36c-6.5,2.27-8.83,4.93-8.83,4.93a90.13,90.13,0,0,1,4.83-8.62Z" style="fill:#fff"></path><polygon points="164.71 204.08 159.09 209.91 167.59 211.4 164.71 204.08" style="fill:#fff"></polygon><polygon points="164.71 167.48 171.32 176.38 176.05 166.3 164.71 167.48" style="fill:#fff"></polygon><path d="M194.64,176.9l-8.45-5.56,6.09-4.65C193.14,169.77,194,173.24,194.64,176.9Z" style="fill:#fff"></path><path d="M195.88,189.12a22,22,0,0,1-1.8,7.25l-3.54-8.71Z" style="fill:#fff"></path><path d="M188.17,154.48,182.82,160l-2-5.08q3.42-.37,7.11-1Z" style="fill:#fff"></path><path d="M160.65,155.6l-3.93,8.32-6.1-9.29A97.26,97.26,0,0,0,160.65,155.6Z" style="fill:#fff"></path></g><path d="M195.89,187.68a13.87,13.87,0,0,1,0,1.44,16.87,16.87,0,0,1-.27,2.21c-7-11.1-5.34-21.14-5.34-21.14l3.31,1.57c.38,1.65.74,3.37,1.06,5.14h0A83.65,83.65,0,0,1,195.89,187.68Z" style="opacity:0.2;isolation:isolate"></path><path d="M167.53,109.73c11.87-4.09,14.85,11.72,3.06,22.41s-25.33,12-26.87,6.58S149.41,116,167.53,109.73Z" style="fill:#407BFF"></path><path d="M155.64,108.93c6.09,0,14.74,6.2,14.74,6.2s1.24,6.6-4.83,12.4S154,134.25,150.62,132s-4.32-11-4.32-11a6.7,6.7,0,0,1,4.32-4.45S151.62,109,155.64,108.93Z" style="fill:#407BFF"></path><path d="M165.55,127.53c-6.07,5.8-11.53,6.72-14.93,4.48a5.42,5.42,0,0,1-1.48-1.56c-2.2-3.31-2.84-9.42-2.84-9.42,5.8,7,12.52-.23,13.45-5.11a7.72,7.72,0,0,0-1.55-6.69c4,.86,8.38,3.42,10.64,4.87,1,.61,1.54,1,1.54,1S171.62,121.73,165.55,127.53Z" style="opacity:0.2;isolation:isolate"></path><path d="M165.55,127.53c-6.07,5.8-11.53,6.72-14.93,4.48a5.42,5.42,0,0,1-1.48-1.56c6.08,1.81,13.32-1.2,17.21-6.61a13.4,13.4,0,0,0,2.49-9.74c1,.61,1.54,1,1.54,1S171.62,121.73,165.55,127.53Z" style="fill:#fff;opacity:0.6000000000000001;isolation:isolate"></path><path d="M187.94,153.92s-4.69,9.48,6.7,24.51L219.75,160l-10-18.15Z" style="fill:#407BFF"></path><path d="M219.75,160l-6.55,4.81-9.69,7.13-8.87,6.52c-.58-.76-1.11-1.51-1.61-2.24a43.31,43.31,0,0,1-2.76-4.64A26.92,26.92,0,0,1,187,159.47a13.28,13.28,0,0,1,1-5.55l5.58-3.1,9.61-5.33,4.22-2.35,2.38-1.32Z" style="fill:#fff;opacity:0.6000000000000001;isolation:isolate"></path><g style="opacity:0.2"><polygon points="213.2 164.78 203.51 171.91 199.24 162.41 213.2 164.78" style="fill:#fff"></polygon><polygon points="212.3 149.5 203.36 153.04 203.13 145.49 207.35 143.14 212.3 149.5" style="fill:#fff"></polygon><path d="M196.72,156.94,187,159.47a13.28,13.28,0,0,1,1-5.55l5.58-3.1Z" style="fill:#fff"></path><path d="M194.64,169.07,193,176.19a43.31,43.31,0,0,1-2.76-4.64Z" style="fill:#fff"></path></g></g></g></svg>