<svg xmlns="http://www.w3.org/2000/svg" viewBox="0 0 500 500"><g id="freepik--background-simple--inject-155"><path d="M354.22,89.9s-62.87-36.39-134.15-9.7-116,97.31-153.7,153.53-31,121.62,14.55,159.19,85.89,1.78,156.2,12.49,87.56,24.4,151.84-5.51,89.42-123.62,54.44-202.73S354.22,89.9,354.22,89.9Z" style="fill:#0077B6"></path><path d="M354.22,89.9s-62.87-36.39-134.15-9.7-116,97.31-153.7,153.53-31,121.62,14.55,159.19,85.89,1.78,156.2,12.49,87.56,24.4,151.84-5.51,89.42-123.62,54.44-202.73S354.22,89.9,354.22,89.9Z" style="fill:#fff;opacity:0.7000000000000001"></path></g><g id="freepik--Building--inject-155"><line x1="36.41" y1="410" x2="456.12" y2="410" style="fill:none;stroke:#8f8f8f;stroke-linecap:round;stroke-linejoin:round"></line><line x1="35.6" y1="400" x2="470.59" y2="400" style="fill:none;stroke:#8f8f8f;stroke-linecap:round;stroke-linejoin:round"></line><line x1="54.5" y1="390" x2="475.02" y2="390" style="fill:none;stroke:#8f8f8f;stroke-linecap:round;stroke-linejoin:round"></line><line x1="39.62" y1="380" x2="467.78" y2="380" style="fill:none;stroke:#8f8f8f;stroke-linecap:round;stroke-linejoin:round"></line><line x1="45.65" y1="371" x2="481" y2="371" style="fill:none;stroke:#8f8f8f;stroke-linecap:round;stroke-linejoin:round"></line><line x1="33.99" y1="362" x2="466.98" y2="362" style="fill:none;stroke:#8f8f8f;stroke-linecap:round;stroke-linejoin:round"></line><line x1="42.44" y1="355" x2="456.93" y2="355" style="fill:none;stroke:#8f8f8f;stroke-linecap:round;stroke-linejoin:round"></line><line x1="33.59" y1="350" x2="465.77" y2="350" style="fill:none;stroke:#8f8f8f;stroke-linecap:round;stroke-linejoin:round"></line><line x1="41.63" y1="345" x2="473.01" y2="345" style="fill:none;stroke:#8f8f8f;stroke-linecap:round;stroke-linejoin:round"></line><line x1="29" y1="420" x2="474.61" y2="420" style="fill:none;stroke:#8f8f8f;stroke-linecap:round;stroke-linejoin:round"></line><rect x="351.83" y="336.67" width="42.25" height="8.05" transform="translate(745.92 681.38) rotate(180)" style="fill:none;stroke:#8f8f8f;stroke-linecap:round;stroke-linejoin:round"></rect><rect x="357.04" y="331.22" width="31.85" height="5.5" transform="translate(745.92 667.93) rotate(180)" style="fill:none;stroke:#8f8f8f;stroke-linecap:round;stroke-linejoin:round"></rect><polyline points="360.17 83.77 360.17 331.26 385.75 331.26 385.75 83.77" style="fill:none;stroke:#8f8f8f;stroke-linecap:round;stroke-linejoin:round"></polyline><line x1="381.59" y1="289.27" x2="381.59" y2="331.39" style="fill:none;stroke:#8f8f8f;stroke-linecap:round;stroke-linejoin:round"></line><line x1="381.59" y1="137.09" x2="381.59" y2="273.92" style="fill:none;stroke:#8f8f8f;stroke-linecap:round;stroke-linejoin:round"></line><line x1="376.25" y1="321.2" x2="376.25" y2="331.39" style="fill:none;stroke:#8f8f8f;stroke-linecap:round;stroke-linejoin:round"></line><line x1="376.25" y1="188.13" x2="376.25" y2="311.81" style="fill:none;stroke:#8f8f8f;stroke-linecap:round;stroke-linejoin:round"></line><line x1="376.25" y1="98.58" x2="376.25" y2="179.68" style="fill:none;stroke:#8f8f8f;stroke-linecap:round;stroke-linejoin:round"></line><line x1="376.25" y1="84.33" x2="376.25" y2="92.94" style="fill:none;stroke:#8f8f8f;stroke-linecap:round;stroke-linejoin:round"></line><line x1="364.92" y1="84.33" x2="364.92" y2="331.39" style="fill:none;stroke:#8f8f8f;stroke-linecap:round;stroke-linejoin:round"></line><rect x="419.29" y="336.67" width="42.25" height="8.05" transform="translate(880.83 681.38) rotate(180)" style="fill:none;stroke:#8f8f8f;stroke-linecap:round;stroke-linejoin:round"></rect><rect x="424.49" y="331.22" width="31.85" height="5.5" transform="translate(880.83 667.93) rotate(180)" style="fill:none;stroke:#8f8f8f;stroke-linecap:round;stroke-linejoin:round"></rect><polyline points="427.62 83.77 427.62 331.26 453.21 331.26 453.21 83.77" style="fill:none;stroke:#8f8f8f;stroke-linecap:round;stroke-linejoin:round"></polyline><line x1="449.04" y1="289.27" x2="449.04" y2="331.39" style="fill:none;stroke:#8f8f8f;stroke-linecap:round;stroke-linejoin:round"></line><line x1="449.04" y1="137.09" x2="449.04" y2="273.92" style="fill:none;stroke:#8f8f8f;stroke-linecap:round;stroke-linejoin:round"></line><line x1="443.71" y1="321.2" x2="443.71" y2="331.39" style="fill:none;stroke:#8f8f8f;stroke-linecap:round;stroke-linejoin:round"></line><line x1="443.71" y1="188.13" x2="443.71" y2="311.81" style="fill:none;stroke:#8f8f8f;stroke-linecap:round;stroke-linejoin:round"></line><line x1="443.71" y1="98.58" x2="443.71" y2="179.68" style="fill:none;stroke:#8f8f8f;stroke-linecap:round;stroke-linejoin:round"></line><line x1="443.71" y1="84.33" x2="443.71" y2="92.94" style="fill:none;stroke:#8f8f8f;stroke-linecap:round;stroke-linejoin:round"></line><line x1="432.38" y1="84.33" x2="432.38" y2="331.39" style="fill:none;stroke:#8f8f8f;stroke-linecap:round;stroke-linejoin:round"></line><rect x="51.38" y="336.67" width="42.25" height="8.05" transform="translate(145.01 681.38) rotate(180)" style="fill:none;stroke:#8f8f8f;stroke-linecap:round;stroke-linejoin:round"></rect><rect x="56.58" y="331.22" width="31.85" height="5.5" transform="translate(145.01 667.93) rotate(180)" style="fill:none;stroke:#8f8f8f;stroke-linecap:round;stroke-linejoin:round"></rect><polyline points="59.71 83.77 59.71 331.26 85.3 331.26 85.3 83.77" style="fill:none;stroke:#8f8f8f;stroke-linecap:round;stroke-linejoin:round"></polyline><line x1="81.13" y1="289.27" x2="81.13" y2="331.39" style="fill:none;stroke:#8f8f8f;stroke-linecap:round;stroke-linejoin:round"></line><line x1="81.13" y1="137.09" x2="81.13" y2="273.92" style="fill:none;stroke:#8f8f8f;stroke-linecap:round;stroke-linejoin:round"></line><line x1="75.8" y1="321.2" x2="75.8" y2="331.39" style="fill:none;stroke:#8f8f8f;stroke-linecap:round;stroke-linejoin:round"></line><line x1="75.8" y1="188.13" x2="75.8" y2="311.81" style="fill:none;stroke:#8f8f8f;stroke-linecap:round;stroke-linejoin:round"></line><line x1="75.8" y1="98.58" x2="75.8" y2="179.68" style="fill:none;stroke:#8f8f8f;stroke-linecap:round;stroke-linejoin:round"></line><line x1="75.8" y1="84.33" x2="75.8" y2="92.94" style="fill:none;stroke:#8f8f8f;stroke-linecap:round;stroke-linejoin:round"></line><line x1="64.46" y1="84.33" x2="64.46" y2="331.39" style="fill:none;stroke:#8f8f8f;stroke-linecap:round;stroke-linejoin:round"></line><rect x="303.83" y="336.67" width="42.25" height="8.05" style="fill:none;stroke:#8f8f8f;stroke-linecap:round;stroke-linejoin:round"></rect><rect x="309.04" y="331.22" width="31.85" height="5.5" style="fill:none;stroke:#8f8f8f;stroke-linecap:round;stroke-linejoin:round"></rect><polyline points="337.75 83.77 337.75 331.26 312.17 331.26 312.17 83.77" style="fill:none;stroke:#8f8f8f;stroke-linecap:round;stroke-linejoin:round"></polyline><line x1="316.33" y1="289.27" x2="316.33" y2="331.39" style="fill:none;stroke:#8f8f8f;stroke-linecap:round;stroke-linejoin:round"></line><line x1="316.33" y1="137.09" x2="316.33" y2="273.92" style="fill:none;stroke:#8f8f8f;stroke-linecap:round;stroke-linejoin:round"></line><line x1="316.33" y1="84.33" x2="316.33" y2="127.38" style="fill:none;stroke:#8f8f8f;stroke-linecap:round;stroke-linejoin:round"></line><line x1="321.67" y1="321.2" x2="321.67" y2="331.39" style="fill:none;stroke:#8f8f8f;stroke-linecap:round;stroke-linejoin:round"></line><line x1="321.67" y1="188.13" x2="321.67" y2="311.81" style="fill:none;stroke:#8f8f8f;stroke-linecap:round;stroke-linejoin:round"></line><line x1="321.67" y1="98.58" x2="321.67" y2="179.68" style="fill:none;stroke:#8f8f8f;stroke-linecap:round;stroke-linejoin:round"></line><line x1="321.67" y1="84.33" x2="321.67" y2="92.94" style="fill:none;stroke:#8f8f8f;stroke-linecap:round;stroke-linejoin:round"></line><line x1="333" y1="84.33" x2="333" y2="331.39" style="fill:none;stroke:#8f8f8f;stroke-linecap:round;stroke-linejoin:round"></line><rect x="161.58" y="336.67" width="42.25" height="8.05" transform="translate(365.41 681.38) rotate(180)" style="fill:none;stroke:#8f8f8f;stroke-linecap:round;stroke-linejoin:round"></rect><rect x="166.78" y="331.22" width="31.84" height="5.5" transform="translate(365.41 667.93) rotate(180)" style="fill:none;stroke:#8f8f8f;stroke-linecap:round;stroke-linejoin:round"></rect><polyline points="169.91 83.77 169.91 331.26 195.5 331.26 195.5 83.77" style="fill:none;stroke:#8f8f8f;stroke-linecap:round;stroke-linejoin:round"></polyline><line x1="191.33" y1="289.27" x2="191.33" y2="331.39" style="fill:none;stroke:#8f8f8f;stroke-linecap:round;stroke-linejoin:round"></line><line x1="191.33" y1="137.09" x2="191.33" y2="273.92" style="fill:none;stroke:#8f8f8f;stroke-linecap:round;stroke-linejoin:round"></line><line x1="191.33" y1="84.33" x2="191.33" y2="127.38" style="fill:none;stroke:#8f8f8f;stroke-linecap:round;stroke-linejoin:round"></line><line x1="186" y1="321.2" x2="186" y2="331.39" style="fill:none;stroke:#8f8f8f;stroke-linecap:round;stroke-linejoin:round"></line><line x1="186" y1="188.13" x2="186" y2="311.81" style="fill:none;stroke:#8f8f8f;stroke-linecap:round;stroke-linejoin:round"></line><line x1="186" y1="98.58" x2="186" y2="179.68" style="fill:none;stroke:#8f8f8f;stroke-linecap:round;stroke-linejoin:round"></line><line x1="174.67" y1="84.33" x2="174.67" y2="331.39" style="fill:none;stroke:#8f8f8f;stroke-linecap:round;stroke-linejoin:round"></line><rect x="113.58" y="336.67" width="42.25" height="8.05" style="fill:none;stroke:#8f8f8f;stroke-linecap:round;stroke-linejoin:round"></rect><rect x="118.78" y="331.22" width="31.84" height="5.5" style="fill:none;stroke:#8f8f8f;stroke-linecap:round;stroke-linejoin:round"></rect><polyline points="147.5 83.77 147.5 331.26 121.91 331.26 121.91 83.77" style="fill:none;stroke:#8f8f8f;stroke-linecap:round;stroke-linejoin:round"></polyline><line x1="126.08" y1="289.27" x2="126.08" y2="331.39" style="fill:none;stroke:#8f8f8f;stroke-linecap:round;stroke-linejoin:round"></line><line x1="126.08" y1="137.09" x2="126.08" y2="273.92" style="fill:none;stroke:#8f8f8f;stroke-linecap:round;stroke-linejoin:round"></line><line x1="126.08" y1="84.33" x2="126.08" y2="127.38" style="fill:none;stroke:#8f8f8f;stroke-linecap:round;stroke-linejoin:round"></line><line x1="131.41" y1="321.2" x2="131.41" y2="331.39" style="fill:none;stroke:#8f8f8f;stroke-linecap:round;stroke-linejoin:round"></line><line x1="131.41" y1="188.13" x2="131.41" y2="311.81" style="fill:none;stroke:#8f8f8f;stroke-linecap:round;stroke-linejoin:round"></line><line x1="131.41" y1="98.58" x2="131.41" y2="179.68" style="fill:none;stroke:#8f8f8f;stroke-linecap:round;stroke-linejoin:round"></line><line x1="131.41" y1="84.33" x2="131.41" y2="92.94" style="fill:none;stroke:#8f8f8f;stroke-linecap:round;stroke-linejoin:round"></line><line x1="142.75" y1="84.33" x2="142.75" y2="331.39" style="fill:none;stroke:#8f8f8f;stroke-linecap:round;stroke-linejoin:round"></line><rect x="210.64" y="156" width="85.36" height="189" style="fill:none;stroke:#8f8f8f;stroke-linecap:round;stroke-linejoin:round"></rect><rect x="255.47" y="229.36" width="32.83" height="19.9" style="fill:none;stroke:#8f8f8f;stroke-linecap:round;stroke-linejoin:round"></rect><rect x="255.47" y="253.23" width="32.83" height="19.9" style="fill:none;stroke:#8f8f8f;stroke-linecap:round;stroke-linejoin:round"></rect><rect x="255.47" y="205.48" width="32.83" height="19.9" style="fill:none;stroke:#8f8f8f;stroke-linecap:round;stroke-linejoin:round"></rect><rect x="255.47" y="181.61" width="32.83" height="19.9" style="fill:none;stroke:#8f8f8f;stroke-linecap:round;stroke-linejoin:round"></rect><rect x="255.47" y="277.1" width="32.83" height="19.9" style="fill:none;stroke:#8f8f8f;stroke-linecap:round;stroke-linejoin:round"></rect><rect x="255.47" y="300.98" width="32.83" height="19.9" style="fill:none;stroke:#8f8f8f;stroke-linecap:round;stroke-linejoin:round"></rect><rect x="255.47" y="163.45" width="32.83" height="14.18" style="fill:none;stroke:#8f8f8f;stroke-linecap:round;stroke-linejoin:round"></rect><rect x="218.35" y="163.45" width="33.14" height="14.18" style="fill:none;stroke:#8f8f8f;stroke-linecap:round;stroke-linejoin:round"></rect><rect x="218.35" y="277.1" width="33.14" height="19.9" style="fill:none;stroke:#8f8f8f;stroke-linecap:round;stroke-linejoin:round"></rect><rect x="218.35" y="300.98" width="33.14" height="19.9" style="fill:none;stroke:#8f8f8f;stroke-linecap:round;stroke-linejoin:round"></rect><rect x="218.35" y="205.48" width="33.14" height="19.9" style="fill:none;stroke:#8f8f8f;stroke-linecap:round;stroke-linejoin:round"></rect><rect x="255.47" y="324.85" width="32.83" height="14.67" style="fill:none;stroke:#8f8f8f;stroke-linecap:round;stroke-linejoin:round"></rect><rect x="218.35" y="324.85" width="33.14" height="14.67" style="fill:none;stroke:#8f8f8f;stroke-linecap:round;stroke-linejoin:round"></rect><rect x="218.35" y="181.61" width="33.14" height="19.9" style="fill:none;stroke:#8f8f8f;stroke-linecap:round;stroke-linejoin:round"></rect><rect x="218.35" y="253.23" width="33.14" height="19.9" style="fill:none;stroke:#8f8f8f;stroke-linecap:round;stroke-linejoin:round"></rect><rect x="218.35" y="229.36" width="33.14" height="19.9" style="fill:none;stroke:#8f8f8f;stroke-linecap:round;stroke-linejoin:round"></rect><rect x="202.75" y="136.58" width="101.47" height="16.41" style="fill:none;stroke:#8f8f8f;stroke-linecap:round;stroke-linejoin:round"></rect><rect x="202.75" y="140.77" width="101.47" height="8.05" style="fill:none;stroke:#8f8f8f;stroke-linecap:round;stroke-linejoin:round"></rect></g><g id="freepik--character-5--inject-155"><path d="M410.73,219.39s-3.49.91-5.47-.76-2-6.23.31-9.42,12.45-9,19.13-9.42,15.65,3,16.56,7.14-4.71,23.24-4.71,23.24l-4.4,2.73a111.15,111.15,0,0,1-9.27-7.59,30.07,30.07,0,0,0-8.35-5.77A8.14,8.14,0,0,0,410.73,219.39Z" style="fill:#263238;stroke:#263238;stroke-linecap:round;stroke-linejoin:round"></path><path d="M427.71,359.73a22.53,22.53,0,0,1,1.41,4.52,46.16,46.16,0,0,0,1.69,5.64s1.56,28.77,1.27,34.55-.28,8.61-.7,9-5.79,1.83-8.75,2.82-6.78,2.68-5.37,3.39,22.73,0,22.73,0,1.41.84,1.69-1.56-1.69-3.81-1.13-7.19,4.1-13.55,4.94-21-.56-23.26-.56-25.94.28-5.79.28-5.79Z" style="fill:#fff;stroke:#263238;stroke-linecap:round;stroke-linejoin:round"></path><path d="M441.68,418.13a4.32,4.32,0,0,0-.17-1.77c-1.89.17-6.32.5-6.32.5a14.92,14.92,0,0,1-1.41-2.4,1.81,1.81,0,0,0-2.4-1c-.42.42-5.79,1.83-8.75,2.82s-6.78,2.68-5.37,3.39,22.73,0,22.73,0S441.4,420.53,441.68,418.13Z" style="fill:#0077B6;stroke:#263238;stroke-linecap:round;stroke-linejoin:round"></path><path d="M424.75,359.73a21.72,21.72,0,0,1,1.41,4.52,45.11,45.11,0,0,0,1.7,5.64s1.55,28.77,1.27,34.55-.28,8.61-.71,9-5.78,1.83-8.75,2.82-6.77,2.68-5.36,3.39,22.72,0,22.72,0,1.41.84,1.7-1.56-1.7-3.81-1.13-7.19,4.09-13.55,4.94-21S442,366.65,442,364s.28-5.79.28-5.79Z" style="fill:#fff;stroke:#263238;stroke-linecap:round;stroke-linejoin:round"></path><path d="M438.73,418.13a4.69,4.69,0,0,0-.17-1.77c-1.9.17-6.33.5-6.33.5a14.92,14.92,0,0,1-1.41-2.4,1.81,1.81,0,0,0-2.4-1c-.42.42-5.78,1.83-8.75,2.82s-6.77,2.68-5.36,3.39,22.72,0,22.72,0S438.44,420.53,438.73,418.13Z" style="fill:#0077B6;stroke:#263238;stroke-linecap:round;stroke-linejoin:round"></path><path d="M385.33,265.85s4.77.14,8.17-6.53c0,0,11.16,26.81,15.11,31.17a67.1,67.1,0,0,0,7.62,7.21s-.82,5.85-4,8.44-5.44-.82-5.44-.82-8.44-15.65-13.07-21-12.52-15.79-12.52-15.79A15.06,15.06,0,0,1,385.33,265.85Z" style="fill:#0077B6;stroke:#263238;stroke-linecap:round;stroke-linejoin:round"></path><path d="M423.85,276.6s-14.7,4.9-15.11,5.17-4.9-3.53-5.71-3.81-3.95,1.23-3.81,2.59,3.4,0,3.4,0a10.89,10.89,0,0,1,1.36,3.54c.14,1.5-.14,2.18,1.09,2.86s16.6-1.64,18.1-1.91,3.27-3.27,3.27-6.4S423.85,276.6,423.85,276.6Z" style="fill:#fff;stroke:#263238;stroke-linecap:round;stroke-linejoin:round"></path><path d="M424.4,261.31s-5.16,7.74-5.32,10.93,3.65,5.78,3.65,5.78-2,6.53-4.1,15.49-6.53,25.67-5.92,37.82,3.64,30.23,3.64,30.23h31.44s.91-16.86.91-25.67,6.08-19.45,6.08-26.74a61.73,61.73,0,0,0-2-14.43s-1.06-37.36-2.27-42.83-3.8-9.27-5.47-10.48-8.81-1.22-11.55,2.43-4.1,12.61-5,13.52S424.4,261.31,424.4,261.31Z" style="fill:#263238;stroke:#263238;stroke-linecap:round;stroke-linejoin:round"></path><path d="M448.7,335.89c0-8.81,6.08-19.45,6.08-26.74a61.73,61.73,0,0,0-2-14.43s0-.68-.05-1.87c-13.77,5.2-28.09,2.18-34.07.46a1.46,1.46,0,0,0-.05.2c-2.13,9-6.53,25.67-5.92,37.82s3.64,30.23,3.64,30.23h31.44S448.7,344.7,448.7,335.89Z" style="fill:none;stroke:#263238;stroke-linecap:round;stroke-linejoin:round"></path><path d="M436.7,317.51c-12.15-9.12-6.83-18.38-6.83-18.38" style="fill:none;stroke:#fff;stroke-linecap:round;stroke-linejoin:round"></path><path d="M439.89,296.55s-2.12,22.17-5.62,32.2-1.67,32.05-1.67,32.05" style="fill:none;stroke:#fff;stroke-linecap:round;stroke-linejoin:round"></path><path d="M420.45,208.6S410.12,215,410,217a35.39,35.39,0,0,0,1.22,9.26c.76,2.58,1.82,4.71,1.06,5.92s-1.52,1.68,0,2.43a5.88,5.88,0,0,0,2.28.76s3.8,7.29,4.86,7.75,6.38-2.73,6.38-2.73l3.8,2.27L424,262.83s3,3.34,6.83-2.13,4-13.21,6.23-15.64,8.35-2.59,8.35-2.59l-8.66-14-3.19-2s2.74-7.74,1.07-10.32-5.17,0-6.08,2.27-1.37,3.8-1.37,3.8a14.54,14.54,0,0,1-5.31-2.12c-2.43-1.68-6.38-.16-5.17-4.87A12.68,12.68,0,0,1,420.45,208.6Z" style="fill:#fff;stroke:#263238;stroke-linecap:round;stroke-linejoin:round"></path><path d="M433.51,226.52l-2.58.76s1.22,3.5.31,5.47a9.33,9.33,0,0,1-3,3.34" style="fill:none;stroke:#263238;stroke-linecap:round;stroke-linejoin:round"></path><path d="M417.78,226c1.09,2.36.89,4.77-.44,5.39s-3.3-.8-4.39-3.16-.9-4.78.44-5.39S416.68,223.66,417.78,226Z" style="fill:none;stroke:#263238;stroke-linecap:round;stroke-linejoin:round"></path><line x1="417.78" y1="226.02" x2="427.74" y2="219.39" style="fill:none;stroke:#263238;stroke-linecap:round;stroke-linejoin:round"></line><path d="M376.08,271.7l15.79,14.43,3.94,3.27,10.35,24.09,7.76-5.85s-7.08-10.21-11.85-15.66-19.6-32.94-19.73-33.34S375.94,271.16,376.08,271.7Z" style="fill:#0077B6;stroke:#263238;stroke-linecap:round;stroke-linejoin:round"></path><path d="M445.36,246.57s-6.83,1.07-8.2,7-.15,31.75-.15,31.75l-29.47.6s-4.56-4.7-6.38-5.46-5.31-.16-5.31-.16l1.82,1.37s-6.08,3.19-6.38,4.1-.46,1.22.61,2.13a8.26,8.26,0,0,0,2.73,1.37,28.29,28.29,0,0,1,1.52,2.58c.15.45-1.82.76-.15,1.67s4.86-1.67,7-2.58a14.3,14.3,0,0,1,4.11-1.07s16.25,3.8,24.6,3.95,18.08,2,19.29,1.07,1.37-2.13,1.37-3.95,1.52-29,.15-35.39S451,246.12,445.36,246.57Z" style="fill:#fff;stroke:#263238;stroke-linecap:round;stroke-linejoin:round"></path></g><g id="freepik--character-3--inject-155"><path d="M248.9,273.28s-4.28,16.23-4.58,17.71,1.33,4.13,3.84,4.28,5.61-1.48,7.67-4.87,4.58-12.69,4.58-12.69Z" style="fill:#fff;stroke:#263238;stroke-linecap:round;stroke-linejoin:round"></path><path d="M315.9,270.48s5.46,17.41,5.75,18.29-1.92,3.25-5.75,2.66-3.4.3-5-2.51-6.35-12.1-6.35-12.1a34.72,34.72,0,0,1,4.73-3.84A20.89,20.89,0,0,1,315.9,270.48Z" style="fill:#fff;stroke:#263238;stroke-linecap:round;stroke-linejoin:round"></path><path d="M307,366a22.65,22.65,0,0,0-1.47,4.72,47.7,47.7,0,0,1-1.77,5.9s-1.63,21.1-1.33,27.15.29,9,.74,9.45,6.05,1.92,9.15,2.95,7.08,2.8,5.6,3.54-23.76,0-23.76,0-1.47.89-1.77-1.62,1.77-4,1.18-7.53-4.28-14.16-5.16-22,.59-15.34.59-18.15-.3-6.05-.3-6.05Z" style="fill:#fff;stroke:#263238;stroke-linecap:round;stroke-linejoin:round"></path><path d="M292.43,418.05a4.75,4.75,0,0,1,.18-1.86c2,.18,6.61.53,6.61.53a15.89,15.89,0,0,0,1.48-2.51,1.89,1.89,0,0,1,2.51-1c.44.44,6.05,1.92,9.15,2.95s7.08,2.8,5.6,3.54-23.76,0-23.76,0S292.73,420.56,292.43,418.05Z" style="fill:#263238;stroke:#263238;stroke-linecap:round;stroke-linejoin:round"></path><path d="M260.89,366a23.46,23.46,0,0,1,1.47,4.72,47.7,47.7,0,0,0,1.77,5.9s1.63,21.1,1.33,27.15-.29,9-.74,9.45-6.05,1.92-9.15,2.95-7.08,2.8-5.6,3.54,23.76,0,23.76,0,1.47.89,1.77-1.62-1.77-4-1.18-7.53,4.28-14.16,5.16-22-.59-15.34-.59-18.15.3-6.05.3-6.05Z" style="fill:#fff;stroke:#263238;stroke-linecap:round;stroke-linejoin:round"></path><path d="M275.5,418.05a4.75,4.75,0,0,0-.18-1.86c-2,.18-6.61.53-6.61.53a15.89,15.89,0,0,1-1.48-2.51,1.89,1.89,0,0,0-2.51-1c-.44.44-6.05,1.92-9.15,2.95s-7.08,2.8-5.6,3.54,23.76,0,23.76,0S275.2,420.56,275.5,418.05Z" style="fill:#263238;stroke:#263238;stroke-linecap:round;stroke-linejoin:round"></path><path d="M314,327.59c0,.59.44,14.31-1,23.17s-2.37,18-2.37,18H285.05L283.73,357l-.89,11.81H259.52s-7.82-23.91-4.42-44.86L313,324Z" style="fill:#263238;stroke:#263238;stroke-linecap:round;stroke-linejoin:round"></path><line x1="283.73" y1="356.95" x2="283.73" y2="340.43" style="fill:#fff;stroke:#263238;stroke-linecap:round;stroke-linejoin:round"></line><path d="M266.46,207.46c-.39.2-4.87,6.35-4.43,10.92s4.13,8.12,4.13,14.32a23.55,23.55,0,0,1-1.77,9.74,13.52,13.52,0,0,0,7.83.73,41.37,41.37,0,0,0,7.23-2.06l-.3-5.9s-5.16.73-8.26-5.61S269,216.46,270.3,214a20.77,20.77,0,0,0,1.77-4.28S271,205.1,266.46,207.46Z" style="fill:#263238;stroke:#263238;stroke-linecap:round;stroke-linejoin:round"></path><path d="M288.45,244.8s15.94,7.38,18.74,8.26,9.74,6.35,10.18,11.66-1.18,8.12-2.36,9-9.44,4.72-9.44,4.72l-3.69,4.14a164.83,164.83,0,0,0,6.2,17.71c3.83,9.14,5.6,17,5.9,20.8s.29,8.12.29,8.12-15.34.88-35,.59-26-.89-26-.89-.89-11.06,1.91-19.92,8-13.28,8.42-15.64,1-9.59.59-10.77a6.78,6.78,0,0,0-1.63-2.22l-14.31-5.46s-3.69-4,.74-11.07,6.49-6.64,12.54-9.74,13.43-9.15,14.61-9.74S280.18,240.22,288.45,244.8Z" style="fill:#0077B6;stroke:#263238;stroke-linecap:round;stroke-linejoin:round"></path><path d="M262.62,263.39s-2.21,5.61-2.21,9.74,3.39,8.12,3.39,8.12" style="fill:none;stroke:#263238;stroke-linecap:round;stroke-linejoin:round"></path><path d="M303.06,262.36c.29.59,3.1,7.52,2.51,10.77a36.07,36.07,0,0,1-1.48,6.35" style="fill:none;stroke:#263238;stroke-linecap:round;stroke-linejoin:round"></path><path d="M286.53,243.17s3,.74,3.84,2.07.14,14.76.14,14.76l-12.1-6.2-8.7,7.53s0-9.74,1.62-13.88,6.35-5.46,6.35-5.46Z" style="fill:#fff;stroke:#263238;stroke-linecap:round;stroke-linejoin:round"></path><path d="M275.61,237s.59,4.57-.15,7.08-1.18,1.62-1.18,4,2.81,10.92,5.46,14.17,5.76-10.92,6.64-14.9,1-15.65,1-15.65-4.43,2.51-5.61,3.1S275.61,237,275.61,237Z" style="fill:#fff;stroke:#263238;stroke-linecap:round;stroke-linejoin:round"></path><path d="M268.82,211.59s3.54,2.95,7.68,5.76a110.19,110.19,0,0,0,9.59,5.61s1,9.15.14,10.47-11.65,7.53-13.87,6-3.24-3.83-5.16-12.39A25,25,0,0,1,268.82,211.59Z" style="fill:#fff;stroke:#263238;stroke-linecap:round;stroke-linejoin:round"></path><path d="M274.87,223.63c0,.9.39,1.62.88,1.62s.87-.72.87-1.62-.39-1.62-.87-1.62S274.87,222.74,274.87,223.63Z" style="fill:#263238"></path><path d="M269.14,223.63c0,.9.39,1.62.87,1.62s.88-.72.88-1.62S270.5,222,270,222,269.14,222.74,269.14,223.63Z" style="fill:#263238"></path><path d="M271.63,222.51a9.3,9.3,0,0,1-.87,4c-.87,1.37-1.62,1.87-.37,2.62a2.06,2.06,0,0,0,2.74-.75" style="fill:none;stroke:#263238;stroke-linecap:round;stroke-linejoin:round"></path><path d="M272.51,231.73a4.35,4.35,0,0,0,4.73-1.12" style="fill:none;stroke:#263238;stroke-linecap:round;stroke-linejoin:round"></path><path d="M278.11,221a2.25,2.25,0,0,0-3-1.13" style="fill:none;stroke:#263238;stroke-linecap:round;stroke-linejoin:round"></path><path d="M271.51,220.52a1.59,1.59,0,0,0-2.74.25" style="fill:none;stroke:#263238;stroke-linecap:round;stroke-linejoin:round"></path><path d="M266.61,209.53s-2.51-2.07.15-5.46,19.33-4.43,25.23-1,10.33,16.53,10.18,28.63-3.24,12-6.49,12.84-11.51-.29-11.51-.29a35,35,0,0,0,2.06-10.78s-1-10-1.77-10.92S269.71,213.07,266.61,209.53Z" style="fill:#263238;stroke:#263238;stroke-linecap:round;stroke-linejoin:round"></path><polygon points="264.84 252.18 306.16 301.47 304.53 306.19 261.59 254.09 264.84 252.18" style="fill:#263238;stroke:#263238;stroke-linecap:round;stroke-linejoin:round"></polygon><path d="M249.66,284.58l27.61-6.84a57.13,57.13,0,0,0,6.25-4.35c2.6-2.18,2.44.78,4,2.48s4,3.42,3.2,4.2-2.44,1.09-2.74,1.55a10.2,10.2,0,0,1-5.5,2.65c-3.2.62-4.72-.94-4.72-.94s-26.54,14.14-29.44,14.3-4.42-3.42-4-7,1.83-4.82,1.83-4.82" style="fill:#fff;stroke:#263238;stroke-linecap:round;stroke-linejoin:round"></path><path d="M293.91,284.35s-6.49,5.46-6.2,6.34a1.9,1.9,0,0,0,1.48,1.48l1.47.29s2.51,4.28,3.84,4.43,6.79-1.92,6.79-1.92,12.25.3,15-.29,5.31-3.4,5.31-5.91-4-5.6-7.38-4.57-14.31,4.57-15.49,4.57S296.42,283.17,293.91,284.35Z" style="fill:#fff;stroke:#263238;stroke-linecap:round;stroke-linejoin:round"></path><path d="M302.91,297.78l12.54.44s8.71,29.07,9.15,30.25-2.21,4-5,5-10.92,1.92-12.1.29-1.78-5.6-1.78-7.08S302.91,297.78,302.91,297.78Z" style="fill:#263238;stroke:#263238;stroke-linecap:round;stroke-linejoin:round"></path><path d="M350.23,411.53a59,59,0,0,1-9.22,3.54c-4.93,1.39-7.08,3.43-4.72,4.29s17,.64,19.19.54,3.33-.43,3.33-1.61a6.86,6.86,0,0,0-.43-2.68C358.17,415.28,350.23,411.53,350.23,411.53Z" style="fill:#fff;stroke:#263238;stroke-linecap:round;stroke-linejoin:round"></path><path d="M357.09,320.06s-2.25,17.48.43,33.78,3.65,28.31,2.15,37.42-2.15,16.63-2,18.56.64,5.36.64,5.36a5.68,5.68,0,0,1-4.72-.22c-2.35-1.28-4.28-2.25-4.28-2.25s2-10.94.85-17.8-2.36-10.51-2.89-18-3-21.66-3.43-33.57-1.93-20.05-1.08-26.38S357.52,316.31,357.09,320.06Z" style="fill:#0077B6;stroke:#263238;stroke-linecap:round;stroke-linejoin:round"></path><path d="M339.61,411.53a58.5,58.5,0,0,1-9.22,3.54c-4.93,1.39-7.07,3.43-4.72,4.29s17.05.64,19.2.54,3.32-.43,3.32-1.61a6.67,6.67,0,0,0-.43-2.68C347.55,415.28,339.61,411.53,339.61,411.53Z" style="fill:#fff;stroke:#263238;stroke-linecap:round;stroke-linejoin:round"></path><path d="M327.6,311a209.39,209.39,0,0,0-1,31.31c.75,17.59,6.54,41,9.44,48.58s3.21,19.51,3.21,20.16-1.82,0,1.5,2.89a18.4,18.4,0,0,0,7.51,3.75s-.86-12.44.11-20.37a127.55,127.55,0,0,0,.64-23.7c-.54-6.86-.32-21-.11-28.63a91.06,91.06,0,0,1,2.9-18.44c.32-.65,6.11-2.47,7.08-6.54a61.07,61.07,0,0,0,1.07-10.3Z" style="fill:#0077B6;stroke:#263238;stroke-linecap:round;stroke-linejoin:round"></path><path d="M342.4,237.6s-4.5,20.81-6,28.74S328,288,327.5,297.87s-1.18,15.55-1.18,15.55,3.86,1.5,13.19,1.28,23.16-1.5,23.16-1.5.54-5.25,1.39-15.76,3.33-23.27,3.22-35.28.11-11.37-2.9-19a77.82,77.82,0,0,0-5.79-12S348,228.6,342.4,237.6Z" style="fill:#fff;stroke:#263238;stroke-linecap:round;stroke-linejoin:round"></path><path d="M343.05,237s-4.4,4.83-4.83,8,.32,5.26,1.07,3.86,4-6.75,6.54-7.29,5.15,1.29,6.44,3.54.11,6-1.72,18.87-1.93,19.2-4,21.88-3.75,2.36-5.57,1.28-2.79-.64-2,1.51,4.83,5.89,10.94,8.25,11.47,4.08,17.8.32,10.72-12.76,8.26-24.66-6.87-21.34-9.76-28.2a79.92,79.92,0,0,0-6.44-12.12l-.85-.1s2.46,5.46,4,9.54-.85,5.15-4.07,5.15-6.11-7.72-8.58-9.55S344.76,235,343.05,237Z" style="fill:#263238;stroke:#263238;stroke-linecap:round;stroke-linejoin:round"></path><path d="M336.08,200s-3.22,8.9-2.58,10.4,1.4,1.28.86,3-3.22,1.5-2.57,3.22a4.56,4.56,0,0,0,1.5,2.25s-.43,5.15,1.5,8,2.25,4,4.61,3.11a25.47,25.47,0,0,0,4.5-2.25s.65,5.9,1.08,5.9,11.26-4.29,11.26-4.29-.54-7.4-.11-8.9,4.29-3.11,5.25-8.47-9.86-16.95-16.62-17.37A8.4,8.4,0,0,0,336.08,200Z" style="fill:#fff;stroke:#263238;stroke-linecap:round;stroke-linejoin:round"></path><path d="M340,186.24s-6.75,1.29-7.72,5.9,3.54,9.33,5.36,10.08a7.76,7.76,0,0,1,2.36,1.29s-3.32,3.21-1.18,5,4.29,1.93,4.51,2.68,1,2.36,1.82,2.68.54,5.25,2.36,6.75,3.65,1.72,7.29.86,11.69-6.33,12.55-13.3-3.33-17.05-11.15-20.37S340,186.24,340,186.24Z" style="fill:#263238;stroke:#263238;stroke-linecap:round;stroke-linejoin:round"></path><path d="M341.12,212.3s.53-3.86,1.93-2.36a7.61,7.61,0,0,1,2.14,7.29c-.75,3.65-2,1.82-2.57.54" style="fill:#fff;stroke:#263238;stroke-linecap:round;stroke-linejoin:round"></path><path d="M340.15,234.82s-.21,4.93.11,4.93,9.33-4.4,12.87-5.68a22.36,22.36,0,0,1,6.86-1.29l-1.93-5.15a23.09,23.09,0,0,0-8.37,1.61A59.21,59.21,0,0,0,340.15,234.82Z" style="fill:#fff;stroke:#263238;stroke-linecap:round;stroke-linejoin:round"></path><path d="M335.75,274.17a47.45,47.45,0,0,0-6.32,10.72c-2.9,6.65-12.44,17.91-13.94,19.63s-6.11,6.43-6.44,7.72-1.18,4.39-.32,5.36a7.53,7.53,0,0,0,3.22,1.61c.43.1,1-.11.64-.75l-.64-1.29a12.2,12.2,0,0,1,2.57-2.9,13.77,13.77,0,0,0,3.76-4.82c.53-1.4,1.07-2.9,1.07-2.9s18.33-14.15,21.23-17.15,5.25-6.12,5.68-7.62a53.32,53.32,0,0,0,.54-7.18Z" style="fill:#fff;stroke:#263238;stroke-linecap:round;stroke-linejoin:round"></path><path d="M351.73,266s4-14,1.29-20.91S346.58,238,342.4,241s-5,14.26-5.79,17-4,16-4,16,5.26,2.47,8.26,3.54,8.37,2.68,8.37,2.68Z" style="fill:#fff;stroke:#263238;stroke-linecap:round;stroke-linejoin:round"></path></g><g id="freepik--character-2--inject-155"><path d="M230.34,337.15s-3,22.38-.89,32.09,4.65,31.24,3.8,36.73-1.69,9.71-1.69,9.71a75.57,75.57,0,0,1-8.86.85c-3.38,0-.43-30.82-2.11-51.51S227.84,332.93,230.34,337.15Z" style="fill:#263238;stroke:#263238;stroke-linecap:round;stroke-linejoin:round"></path><path d="M219.44,411.44a55.53,55.53,0,0,1-5.78,2.25c-4.17,1.44-9.78,3.69-9.46,5.13s25.19,1.28,26.47,1,1.45-6.9,1.45-6.9Z" style="fill:#fff;stroke:#263238;stroke-linecap:round;stroke-linejoin:round"></path><path d="M212.69,411.44a56.87,56.87,0,0,1-5.78,2.25c-4.17,1.44-9.79,3.69-9.47,5.13s25.19,1.28,26.48,1,1.44-6.9,1.44-6.9Z" style="fill:#fff;stroke:#263238;stroke-linecap:round;stroke-linejoin:round"></path><path d="M199.21,309.39s-1.77,28.88,0,45.25,12.67,49.42,13.15,51a7.3,7.3,0,0,1,.16,3.21,4.88,4.88,0,0,0-.48,2.41c.16,1.12,5.14,2.73,7.54,3.37a30.91,30.91,0,0,0,5.3.8,42.56,42.56,0,0,0,3.37-11.39c1.28-7.38-.16-22.14-.8-30s2.89-36.9,2.89-36.9a17.15,17.15,0,0,0,6.73-9.79c1.93-6.9,1.29-17.65,1.29-17.65s-17.81,1.93-27.76-.32-12-2.57-12-2.57Z" style="fill:#263238;stroke:#263238;stroke-linecap:round;stroke-linejoin:round"></path><path d="M226.92,411s3-16.05.84-26.6-1.69-28.71,0-36.74" style="fill:none;stroke:#fff;stroke-linecap:round;stroke-linejoin:round"></path><path d="M217,323.35a186.49,186.49,0,0,0-1.29,31.45c.65,18.93,4.66,34.66,4.82,43s-.32,14.76-.32,14.76" style="fill:none;stroke:#fff;stroke-linecap:round;stroke-linejoin:round"></path><path d="M207.23,322.07s.32,7.54,1.44,10.59,5.94,4.81,5.94,4.81" style="fill:none;stroke:#fff;stroke-linecap:round;stroke-linejoin:round"></path><path d="M198.24,310.67s-.8,5-.16,6.26,10.91,5.94,22.79,4.65,17-1.44,17.81-4.33a37,37,0,0,0,.8-7.7s-14.76,4-27.6,2.41S198.24,310.67,198.24,310.67Z" style="fill:#0077B6;stroke:#263238;stroke-linecap:round;stroke-linejoin:round"></path><path d="M213.81,254.52s-5.14,12-7.38,18.13-7.54,22.78-9.63,27.59-1.28,9.95,1.93,12S216.38,316,228.57,315s13.48-4,13.8-6.9-1.93-25.36-7.22-41.24-6.26-19.41-8.51-19.41S213.81,254.52,213.81,254.52Z" style="fill:#0077B6;stroke:#263238;stroke-linecap:round;stroke-linejoin:round"></path><path d="M203.06,213.6s-2.41,6.74-2.41,7.86,1.45,3.69,1.45,3.69-4.5,5.78-3.7,7.06,4.34,2.57,4.34,2.57,1.44,8.5,3.37,9.31,8.18-2.89,8.18-2.89l1.44,9,9.79-4.49V237a18,18,0,0,0,7.54-9.47c2.25-6.58,1-9.31,1-9.31Z" style="fill:#fff;stroke:#263238;stroke-linecap:round;stroke-linejoin:round"></path><path d="M233.06,227.56c2.25-6.58,1-9.31,1-9.31l-18.9-2.84-.36,1.08s-2.41,2.89-1.6,3.85a14.64,14.64,0,0,0,3.53,2.24s-.65,3.7-.16,4,1.6,1.92,1.92.64a15.62,15.62,0,0,1,1.29-4.66c1.12-2.4,5.77-2.08,5.93,1.61a8.8,8.8,0,0,1-3.05,6.9l-.64.32s.8,5,3.53,5.62A18,18,0,0,0,233.06,227.56Z" style="fill:#263238;stroke:#263238;stroke-linecap:round;stroke-linejoin:round"></path><path d="M203.86,221.62s2.41-1.92,4.65,1.45" style="fill:none;stroke:#263238;stroke-linecap:round;stroke-linejoin:round"></path><ellipse cx="206.16" cy="225.47" rx="0.88" ry="1.77" style="fill:#263238"></ellipse><path d="M206.11,235.1s2.88,1.12,4.81-2.25" style="fill:none;stroke:#263238;stroke-linecap:round;stroke-linejoin:round"></path><path d="M203.38,212.32s3.53-8.19,5.29-10.92a5.92,5.92,0,0,1,5.62-2.72c1.44,0,17.49,3.85,18.93,6.58S234.67,221,234.67,221Z" style="fill:#fff;stroke:#263238;stroke-linecap:round;stroke-linejoin:round"></path><path d="M203.38,212.32,234.67,221s0-3.43-.2-7.13L206,206.56C204.61,209.46,203.38,212.32,203.38,212.32Z" style="fill:#263238;stroke:#263238;stroke-linecap:round;stroke-linejoin:round"></path><path d="M194.23,212.8l45.89,11.71a17,17,0,0,0-5.29-6.1c-4-3-23.75-8.5-30.17-8.66A17.06,17.06,0,0,0,194.23,212.8Z" style="fill:#fff;stroke:#263238;stroke-linecap:round;stroke-linejoin:round"></path><rect x="187.33" y="281.31" width="8.99" height="13.64" style="fill:#fff;stroke:#263238;stroke-linecap:round;stroke-linejoin:round"></rect><rect x="184.77" y="284.52" width="2.73" height="6.58" style="fill:#263238;stroke:#263238;stroke-linecap:round;stroke-linejoin:round"></rect><line x1="225.84" y1="248.42" x2="191.51" y2="281.47" style="fill:none;stroke:#263238;stroke-linecap:round;stroke-linejoin:round;stroke-width:2px"></line><path d="M217.5,290.3s-14.28-2.89-15.24-3.53-3.86-4.66-5.3-5.14-5-.16-5.45-.16-1.13,1.61.16,1.93,2.88.48,3.53,1.12a5.49,5.49,0,0,1,1.12,3.05c0,.8-2.57,2.73-4,3.21s-4.82.64-5,1.44a2.06,2.06,0,0,0,1,2.09,17.52,17.52,0,0,0,4.49,1.92c1.76.32,8.66-1.6,8.66-1.6s13.64,6.42,17.33,7.86,8.35,3.21,11.07.16-.16-12.67-.16-12.67Z" style="fill:#fff;stroke:#263238;stroke-linecap:round;stroke-linejoin:round"></path><path d="M220.23,258.05s-3.37,4.17-3.37,8.82v23.75l17.33,3.05s.32-19.26.16-24.07-1.77-7.86-2.57-8.51" style="fill:#0077B6;stroke:#263238;stroke-linecap:round;stroke-linejoin:round"></path><polygon points="212.36 249.86 211.88 257.24 230.34 247.94 228.41 242 212.36 249.86" style="fill:#0077B6;stroke:#263238;stroke-linecap:round;stroke-linejoin:round"></polygon></g><g id="freepik--character-1--inject-155"><path d="M108.37,194.35s-8.73,2-13,9.85-2.67,13.38.14,16.19a13.71,13.71,0,0,0,9.29,4.08c2.82,0,5.07-13.51,8.17-14.78s6.33,2.4,10,2.82,7.74-.56,6.34-7S115.41,191.67,108.37,194.35Z" style="fill:#263238;stroke:#263238;stroke-linecap:round;stroke-linejoin:round"></path><path d="M98.8,338.07s.28,11.55-.14,15.91-2.11,11.26-2.11,19-.85,35.9-.85,35.9a64,64,0,0,1-5.21,5.63c-1.83,1.55-6.75,2.11-6.75,3.66s2,1.83,2,1.83H101.9s1.12-.56,1.12-3.38-.42-5.63-.42-7,5.77-37,6.05-42.93,4.51-27.45,4.51-27.45Z" style="fill:#fff;stroke:#263238;stroke-linecap:round;stroke-linejoin:round"></path><path d="M90.49,414.51c-1.83,1.55-6.75,2.11-6.75,3.66s2,1.83,2,1.83H101.9s1.12-.56,1.12-3.38c0-1.34-.09-2.67-.19-3.85l-3.89-.09a13.34,13.34,0,0,0-1-3c-.56-1-2.25-.84-2.25-.84A64,64,0,0,1,90.49,414.51Z" style="fill:#fff;stroke:#263238;stroke-linecap:round;stroke-linejoin:round"></path><path d="M102.85,418.31H83.76c.12,1.42,1.95,1.69,1.95,1.69H101.9S102.54,419.68,102.85,418.31Z" style="fill:#0077B6;stroke:#263238;stroke-linecap:round;stroke-linejoin:round"></path><path d="M138.36,338.07s-.29,11.55.14,15.91,2.11,11.26,2.11,19,.84,35.9.84,35.9a64,64,0,0,0,5.21,5.63c1.83,1.55,6.76,2.11,6.76,3.66s-2,1.83-2,1.83H135.26s-1.13-.56-1.13-3.38.42-5.63.42-7-5.77-37-6.05-42.93S124,339.2,124,339.2Z" style="fill:#fff;stroke:#263238;stroke-linecap:round;stroke-linejoin:round"></path><path d="M146.66,414.51c1.83,1.55,6.76,2.11,6.76,3.66s-2,1.83-2,1.83H135.26s-1.13-.56-1.13-3.38c0-1.34.1-2.67.2-3.85l3.88-.09a13.93,13.93,0,0,1,1-3c.56-1,2.25-.84,2.25-.84A64,64,0,0,0,146.66,414.51Z" style="fill:#fff;stroke:#263238;stroke-linecap:round;stroke-linejoin:round"></path><path d="M134.3,418.31h19.09c-.12,1.42-1.94,1.69-1.94,1.69H135.26S134.62,419.68,134.3,418.31Z" style="fill:#0077B6;stroke:#263238;stroke-linecap:round;stroke-linejoin:round"></path><polygon points="100.63 288.8 100.46 289.64 90.35 340.89 143.84 340.32 133.43 289.23 100.63 288.8" style="fill:#263238;stroke:#263238;stroke-linecap:round;stroke-linejoin:round"></polygon><path d="M142.81,335.26l-51.37.13-1.09,5.5,53.5-.56Z" style="fill:#fff;stroke:#263238;stroke-linecap:round;stroke-linejoin:round"></path><polyline points="119.67 333.7 119.77 316.39 122.73 315.55" style="fill:none;stroke:#fff;stroke-linecap:round;stroke-linejoin:round"></polyline><polyline points="121.46 307.1 121.46 292.46 123.72 292.46 124.28 305.42" style="fill:none;stroke:#fff;stroke-linecap:round;stroke-linejoin:round"></polyline><path d="M129.49,245a7.09,7.09,0,0,1,5.35,4.5c1.4,3.94,7.32,26.18,7.32,26.18s14.21-20.55,14.92-22.38a4.5,4.5,0,0,1,3.66-3.1c1.55-.14,5.07-.7,5.21.71s1.26,7-1.13,8.16-7.74,1.41-7.74,1.41-14.64,27.59-16.75,28-10.42-17.45-10.42-17.45l-2.39-26.47Z" style="fill:#fff;stroke:#263238;stroke-linecap:round;stroke-linejoin:round"></path><line x1="148.49" y1="136.21" x2="163.41" y2="272.33" style="fill:none;stroke:#263238;stroke-linecap:round;stroke-linejoin:round;stroke-width:2px"></line><path d="M157.08,253.33s1.55-2.81,2.67-3.1,3.52.14,3.52,1,1.27,4.79.14,5.21-1.69-2.54-1.69-2.54-.7,2.54-2.81,2.68" style="fill:#fff;stroke:#263238;stroke-linecap:round;stroke-linejoin:round"></path><path d="M148.91,139.59s-3.8,8.31-11.68,10.42-8.42-.44-14.19,3.36-6.48,9-6.48,9l3.5,24.09s2.67-12,11.82-12.39,13.51,1.12,16.89-.56,3.52-2.68,3.52-2.68Z" style="fill:#0077B6;stroke:#263238;stroke-linecap:round;stroke-linejoin:round"></path><path d="M132.7,276.8l7.82-7.19c-1.86-6.89-4.75-17.48-5.68-20.08a7.09,7.09,0,0,0-5.35-4.5l-2-.43,2.39,26.47S131.1,273.63,132.7,276.8Z" style="fill:#263238;stroke:#263238;stroke-linecap:round;stroke-linejoin:round"></path><path d="M109.22,241.51,95,245.87s-3.38,2.39-2.53,7.74,7.31,34.91,8,36a3.49,3.49,0,0,0,2.81,1.69c1.41.28,27.88-.71,29.28-.71s2-.14,2.12-2.67-2-16.89-2-16.89,3-.85,2.54-6.76-4.79-18-5.77-19.28-9.15-3.38-9.15-3.38Z" style="fill:#0077B6;stroke:#000;stroke-miterlimit:10"></path><path d="M109.08,229.26l.28,11.68-2.26,1.83s6.34,11.83,10.14,10,4.22-10.56,4.22-10.56l-2.11-2.39v-8.45Z" style="fill:#fff;stroke:#263238;stroke-linecap:round;stroke-linejoin:round"></path><path d="M97.81,220.25s-6.19-.14-7.6,4.08,2.68,9.15,7.74,9.15,8.73-5.35,6.48-9.57A6.82,6.82,0,0,0,97.81,220.25Z" style="fill:#263238;stroke:#263238;stroke-linecap:round;stroke-linejoin:round"></path><path d="M111.47,201.25s-5.49,5.91-8,8.58-4.22,4.37-4.22,4.37l2,7s-4.36-3.38-4.64-.14,2.11,4.92,3.94,5.63a3.54,3.54,0,0,0,3.1-.14s5.63,5.91,9.85,7.88,7.46,1,10.7-3.8,2.25-10.84,1.26-15.63-.56-5.91-3.66-8.58S111.47,201.25,111.47,201.25Z" style="fill:#fff;stroke:#263238;stroke-linecap:round;stroke-linejoin:round"></path><path d="M116.82,214.62s0,3.38.42,3.66,2.11,0,1.69,1.27-2.82,1.55-2.82,1.55" style="fill:none;stroke:#263238;stroke-linecap:round;stroke-linejoin:round"></path><path d="M112.31,223.77a7.74,7.74,0,0,0,7.75,0" style="fill:none;stroke:#263238;stroke-linecap:round;stroke-linejoin:round"></path><path d="M106.12,217s1.83-1.55,4.79.57" style="fill:none;stroke:#263238;stroke-linecap:round;stroke-linejoin:round"></path><path d="M118.93,216.17a2.86,2.86,0,0,1,3.38-1.69" style="fill:none;stroke:#263238;stroke-linecap:round;stroke-linejoin:round"></path><path d="M105.13,212.23a4.55,4.55,0,0,1,4.93-2.82" style="fill:none;stroke:#263238;stroke-linecap:round;stroke-linejoin:round"></path><path d="M117.1,208.57s1.83-1.69,4.22,1.26" style="fill:none;stroke:#263238;stroke-linecap:round;stroke-linejoin:round"></path><path d="M98.8,252.06c0-.7-2.39-6.75-3.8-6.19S75,276,75,276L55.3,258.26a30.89,30.89,0,0,0-.7-5.49c-.56-2-3-2-3.94-3.8s-2.54-1.41-2.54-.43.71,1.55,1.41,2.4a14.91,14.91,0,0,1,1.27,1.83s-4.08-.85-4.51-.85-3.66-3.94-3.94-2.25,2.54,5.07,4.08,7.32,5.92,4.36,5.92,4.36,20.27,23.37,21.82,24.22,21.25-19.71,21.25-19.71,1.55,4.79,3.8,3S98.8,252.06,98.8,252.06Z" style="fill:#fff;stroke:#263238;stroke-linecap:round;stroke-linejoin:round"></path><path d="M84.15,277.22c5.53-5.37,11.27-11.36,11.27-11.36s1.55,4.79,3.8,3-.42-16.76-.42-16.76c0-.7-2.39-6.75-3.8-6.19-1,.39-10.14,14.61-15.71,23.37C80.9,271.87,82.91,275.19,84.15,277.22Z" style="fill:#263238;stroke:#263238;stroke-linecap:round;stroke-linejoin:round"></path></g></svg>